<?xml version="1.0" standalone="no"?>
<!DOCTYPE svg PUBLIC "-//W3C//DTD SVG 20010904//EN"
 "http://www.w3.org/TR/2001/REC-SVG-20010904/DTD/svg10.dtd">
<svg version="1.0" xmlns="http://www.w3.org/2000/svg"
 width="640.000000pt" height="640.000000pt" viewBox="0 0 640.000000 640.000000"
 preserveAspectRatio="xMidYMid meet">
<metadata>
Created by potrace 1.14, written by Peter Selinger 2001-2017
</metadata>
<g transform="translate(0.000000,640.000000) scale(0.100000,-0.100000)"
fill="#000000" stroke="none">
<path d="M214 6367 c3 -18 8 -61 11 -96 3 -34 8 -67 11 -73 4 -6 8 -34 9 -62
3 -85 5 -97 13 -92 11 7 7 -86 -6 -144 -5 -25 -9 -74 -7 -110 1 -36 -1 -69 -5
-75 -4 -5 -11 -46 -15 -90 -6 -75 -9 -95 -21 -185 -2 -19 -6 -55 -9 -80 -5
-51 -20 -184 -35 -307 -9 -74 -26 -160 -52 -268 -5 -22 -12 -57 -15 -78 -3
-20 -9 -40 -14 -43 -5 -3 -9 -17 -9 -31 0 -15 -7 -49 -15 -77 -7 -28 -22 -89
-32 -136 -17 -80 -18 -215 -21 -2252 l-2 -2168 1776 0 1776 0 -17 26 c-9 15
-29 40 -44 56 -39 45 -81 109 -81 126 0 9 9 25 20 37 l21 22 -52 114 c-120
266 -237 481 -482 883 -7 11 -35 52 -64 92 -29 39 -118 170 -199 290 -81 121
-155 230 -166 243 -10 13 -16 27 -13 30 11 10 79 -72 155 -184 41 -60 89 -130
107 -155 18 -25 37 -50 41 -55 71 -98 236 -356 327 -515 68 -118 245 -440 245
-445 0 -2 29 -65 65 -140 60 -127 66 -135 82 -120 9 9 41 35 72 58 90 65 172
138 212 189 47 60 188 180 252 216 l49 27 -7 60 c-7 67 -30 211 -47 295 -11
53 -11 54 -20 25 -5 -16 -15 -68 -22 -115 -8 -47 -14 -75 -15 -63 -1 12 -7 23
-13 25 -10 4 -8 14 4 44 10 21 22 59 28 83 6 24 15 51 20 60 11 20 34 75 50
121 7 19 19 51 28 70 9 19 17 40 19 45 10 38 29 85 34 85 7 0 -13 -79 -24 -97
-4 -7 -22 -52 -38 -100 -29 -83 -30 -91 -20 -163 27 -192 51 -343 56 -348 3
-3 15 4 28 16 40 38 146 83 229 97 45 8 97 24 117 35 72 41 198 98 276 125 28
10 89 37 136 61 49 24 119 49 164 59 105 21 110 25 106 74 -2 30 2 43 13 47 9
3 16 17 16 30 0 12 8 29 18 36 24 17 41 62 47 121 3 27 7 53 10 57 3 5 1 11
-3 14 -10 6 -190 7 -324 2 -49 -1 -88 1 -88 5 0 12 49 18 185 23 120 4 175 16
207 43 14 12 15 20 5 41 -6 15 -17 34 -24 43 -8 9 -13 20 -12 25 4 15 -14 49
-33 62 -10 7 -18 19 -18 26 0 16 -42 46 -63 46 -8 0 -20 7 -27 15 -12 14 -105
30 -170 28 -91 -2 -179 -56 -231 -140 -19 -30 -23 -33 -31 -19 -5 9 -13 14
-19 11 -5 -4 -9 -1 -9 5 0 15 -52 59 -69 60 -10 0 -9 -4 5 -14 19 -14 19 -15
-1 -13 -10 1 -27 10 -37 19 -10 10 -29 18 -43 18 -14 0 -37 11 -50 24 -13 13
-25 20 -27 15 -2 -5 -15 2 -30 16 -36 34 -62 34 -54 0 4 -14 2 -34 -4 -45 -9
-17 -6 -27 20 -58 33 -40 38 -54 15 -46 -8 3 -17 16 -21 27 -11 37 -24 48 -39
34 -7 -7 -16 -23 -19 -35 -6 -19 9 -38 96 -125 63 -62 118 -126 138 -162 59
-104 138 -265 130 -265 -12 0 -25 22 -49 82 -15 37 -29 58 -43 61 -15 4 -19
11 -15 26 3 11 -1 25 -9 32 -8 6 -14 8 -14 3 0 -5 -10 9 -21 31 -38 71 -91
145 -111 156 -17 9 -19 8 -13 -10 11 -34 -9 -24 -35 19 -14 22 -28 40 -32 40
-5 0 -8 6 -8 14 0 7 -10 24 -22 38 -22 23 -33 88 -16 88 21 0 4 19 -32 35 -42
19 -46 25 -30 41 7 7 3 18 -12 33 -21 23 -50 92 -42 100 2 3 19 -12 38 -32 19
-20 38 -37 44 -37 5 0 15 -14 23 -32 10 -25 14 -28 19 -14 6 17 7 17 20 0 8
-9 14 -20 12 -23 -2 -3 1 -7 7 -9 17 -6 13 29 -6 51 -17 20 -17 20 1 13 25 -9
36 9 36 60 0 44 -27 77 -86 107 -17 9 -34 23 -37 32 -4 8 -11 15 -17 15 -6 0
-9 -4 -6 -9 4 -5 -5 -4 -18 2 -14 7 -20 14 -15 18 5 3 -13 18 -41 33 -28 16
-55 37 -59 48 -4 11 -25 28 -47 38 -26 12 -32 19 -20 19 17 1 15 6 -15 37 -18
20 -50 44 -69 54 -19 11 -28 19 -20 20 10 0 5 9 -14 25 -16 13 -33 22 -39 18
-5 -3 -7 -1 -3 5 3 5 -27 40 -66 77 l-73 66 -8 -48 c-5 -26 -18 -93 -29 -148
-11 -55 -23 -163 -27 -240 -4 -77 -13 -150 -19 -161 -16 -30 -67 -72 -111 -90
-58 -26 -188 -21 -296 11 -108 32 -398 140 -543 202 -9 4 -7 -8 7 -35 12 -23
21 -49 21 -59 0 -10 11 -38 25 -62 27 -47 32 -76 14 -87 -8 -5 -10 1 -7 20 5
26 5 26 -14 10 -17 -16 -20 -16 -34 -2 -13 13 -14 20 -4 37 10 19 9 22 -7 19
-13 -2 -17 3 -16 17 11 97 -6 158 -58 213 -24 26 -47 48 -51 50 -5 2 -8 11 -8
21 0 24 -95 136 -180 212 -39 35 -104 97 -143 138 -40 41 -89 90 -109 109 -37
34 -37 34 -17 55 10 11 25 33 31 49 9 19 18 26 30 23 9 -3 20 0 24 6 4 7 3 9
-4 6 -5 -4 -17 -4 -26 -1 -14 5 -13 9 2 32 14 21 14 24 2 18 -12 -7 -12 -6 -3
4 6 7 9 19 6 26 -3 8 1 14 8 14 10 0 10 3 -1 13 -11 10 -40 12 -120 8 l-105
-6 -1 -35 c0 -19 4 -42 9 -50 6 -8 -7 2 -27 23 -20 20 -41 37 -45 37 -10 0
-31 -46 -31 -68 0 -10 -16 -42 -35 -72 -20 -33 -35 -68 -35 -87 0 -20 -12 -47
-34 -76 -48 -63 -68 -105 -61 -127 6 -19 -39 -60 -67 -60 -8 0 -23 -10 -34
-21 -40 -45 -227 -182 -297 -218 -39 -20 -101 -57 -137 -82 -78 -53 -109 -71
-177 -104 -52 -25 -83 -52 -47 -42 11 3 37 9 59 12 l40 6 -28 -16 c-15 -9 -32
-13 -37 -10 -6 3 -16 3 -22 -2 -7 -4 -21 -9 -31 -10 -31 -5 -189 -84 -247
-123 -66 -45 -163 -134 -137 -126 11 4 16 2 12 -5 -4 -6 -13 -8 -20 -5 -12 4
-45 -22 -45 -36 0 -3 -37 -44 -83 -91 -57 -58 -83 -78 -83 -66 0 11 5 19 11
19 5 0 37 30 70 67 33 36 78 86 100 110 22 25 45 48 50 53 6 5 30 26 55 47 82
71 269 176 297 167 13 -4 15 -3 4 4 -10 8 -9 12 8 24 11 8 18 18 13 22 -4 4
-1 6 7 4 10 -2 15 6 15 27 1 17 5 37 10 45 6 8 11 26 12 40 2 14 6 50 9 80 4
30 8 86 10 124 3 38 9 74 14 79 7 7 6 17 -1 31 -8 15 -8 21 1 24 15 5 14 32
-1 32 -10 0 -10 2 -1 8 7 4 12 16 12 27 1 62 11 153 21 194 6 25 9 69 7 96 -2
37 1 53 12 62 9 7 11 13 5 13 -8 0 -9 11 -4 38 5 20 12 84 16 142 3 58 9 110
13 115 7 12 9 33 14 142 2 54 9 90 20 107 10 14 13 26 7 26 -12 0 -6 167 9
225 14 52 24 179 24 283 0 45 4 82 8 82 3 0 9 11 11 25 3 14 1 25 -4 25 -5 0
-7 8 -4 18 4 10 8 51 11 90 2 40 6 76 9 81 4 5 3 16 0 25 -4 11 0 16 12 16 13
0 15 3 7 8 -9 5 -9 27 -2 82 5 41 7 88 3 103 -3 16 -1 34 7 43 6 8 9 17 6 20
-3 3 -1 19 5 36 8 24 8 32 -3 39 -10 6 -11 9 -1 9 6 0 12 10 12 23 0 13 3 27
7 31 4 4 6 21 5 39 -2 18 2 54 7 82 5 28 6 56 1 66 -5 9 -5 20 0 25 6 6 13 35
16 64 8 75 7 92 -6 100 -7 4 -5 16 5 37 8 16 16 42 17 57 1 14 5 26 8 26 3 0
7 17 7 38 2 56 9 115 16 132 7 16 25 215 33 350 3 46 10 87 16 91 6 4 8 15 4
25 -4 9 -2 20 3 23 5 4 13 72 16 151 4 80 9 152 13 160 10 25 9 75 -2 83 -8 6
-7 10 2 14 6 2 12 16 12 29 l0 24 -576 0 -576 0 6 -33z m3516 -4043 c0 -8 -4
-14 -10 -14 -5 0 -10 4 -10 9 0 5 -3 18 -7 28 -6 16 -5 16 10 4 9 -7 17 -20
17 -27z m200 -184 c0 -23 -36 -16 -50 9 -7 15 -4 17 21 13 20 -3 29 -10 29
-22z m100 -29 c0 -16 -14 -20 -27 -10 -19 17 -16 28 7 22 11 -3 20 -9 20 -12z
m78 -47 c2 -1 4 -13 6 -26 1 -13 6 -30 10 -37 7 -10 4 -11 -12 -2 -19 10 -36
29 -37 41 0 3 -6 14 -12 25 -11 18 -12 18 -13 3 0 -20 -8 -22 -30 -8 -12 8
-12 12 5 28 20 18 21 18 50 -2 17 -12 31 -22 33 -22z m-123 26 c3 -6 -1 -7 -9
-4 -18 7 -21 14 -7 14 6 0 13 -4 16 -10z m22 -50 c3 -10 33 -39 68 -65 78 -57
107 -89 50 -55 -22 13 -49 32 -61 42 -11 10 -26 18 -32 18 -7 0 -17 9 -24 19
-6 10 -17 17 -24 14 -9 -3 -11 2 -7 16 4 16 2 20 -10 16 -8 -4 -17 0 -20 8 -4
10 3 12 25 9 18 -3 32 -12 35 -22z m233 -35 c0 -12 -19 -12 -23 0 -4 9 -1 12
9 8 7 -3 14 -7 14 -8z m-1600 -70 c7 -8 8 -15 2 -15 -5 0 -15 7 -22 15 -7 8
-8 15 -2 15 5 0 15 -7 22 -15z m44 -37 c-4 -6 0 -14 7 -19 8 -5 9 -9 3 -9 -6
0 -19 9 -29 20 -18 20 -18 21 0 14 14 -6 16 -4 10 6 -5 9 -4 11 4 6 6 -4 8
-12 5 -18z m1781 -38 c3 -5 1 -10 -4 -10 -6 0 -11 5 -11 10 0 6 2 10 4 10 3 0
8 -4 11 -10z m41 -38 c-9 -9 -37 8 -31 18 5 8 11 7 21 -1 8 -6 12 -14 10 -17z
m-3976 -46 c0 -3 -4 -8 -10 -11 -5 -3 -10 -1 -10 4 0 6 5 11 10 11 6 0 10 -2
10 -4z m3667 -86 c-3 -22 -2 -40 3 -40 8 0 23 -39 21 -54 -1 -5 2 -12 6 -15 4
-3 15 -19 23 -35 17 -34 33 -39 38 -13 2 10 -3 17 -12 17 -9 0 -16 5 -16 11 0
7 -8 18 -17 25 -16 12 -16 13 -2 14 16 0 39 -27 66 -79 17 -30 16 -34 -3 -27
-8 3 -12 2 -9 -4 3 -6 -1 -10 -10 -10 -9 0 -13 5 -10 10 3 6 1 10 -4 10 -17 0
-13 -28 7 -40 15 -9 14 -10 -8 -8 -18 2 -26 10 -30 30 -3 15 -12 36 -21 46 -8
10 -14 23 -11 30 2 7 -1 12 -6 12 -6 0 -12 10 -15 23 -3 20 -5 19 -17 -11 -7
-18 -14 -32 -15 -30 -4 3 21 128 31 161 10 31 17 18 11 -23z m-1157 -55 c0 -4
-9 4 -20 18 -11 14 -20 28 -20 32 0 4 9 -4 20 -18 11 -14 20 -28 20 -32z
m1375 45 c3 -5 1 -10 -4 -10 -6 0 -11 5 -11 10 0 6 2 10 4 10 3 0 8 -4 11 -10z
m225 -40 c0 -11 -4 -20 -10 -20 -5 0 -10 9 -10 20 0 11 5 20 10 20 6 0 10 -9
10 -20z m55 -30 c16 -7 14 -8 -12 -7 -17 1 -29 5 -26 10 5 9 12 8 38 -3z
m-1595 -22 c0 -6 -6 -5 -15 2 -8 7 -15 14 -15 16 0 2 7 1 15 -2 8 -4 15 -11
15 -16z m1747 16 c-3 -3 -12 -4 -19 -1 -8 3 -5 6 6 6 11 1 17 -2 13 -5z m-447
-13 c0 -17 -18 -21 -24 -6 -3 9 0 15 9 15 8 0 15 -4 15 -9z m-1243 -71 c7 -14
13 -22 13 -17 0 4 8 -1 18 -10 19 -19 18 -43 -2 -43 -16 1 -62 51 -71 78 -6
20 -4 23 11 20 10 -2 24 -14 31 -28z m773 1 c0 -5 -10 -11 -22 -13 -32 -4 -31
-42 1 -46 12 -2 34 -1 48 3 21 5 24 11 20 31 -4 24 -3 25 12 10 34 -35 -35
-79 -89 -56 -37 16 -44 36 -20 60 21 21 50 27 50 11z m-3670 -5 c0 -3 -4 -8
-10 -11 -5 -3 -10 -1 -10 4 0 6 5 11 10 11 6 0 10 -2 10 -4z m4080 -31 c0 -8
-4 -15 -10 -15 -5 0 -7 7 -4 15 4 8 8 15 10 15 2 0 4 -7 4 -15z m-4132 -47
c-18 -29 -40 -66 -50 -83 -10 -16 -18 -25 -18 -18 0 7 13 34 30 60 17 26 30
51 30 55 0 11 23 37 32 38 4 0 -7 -24 -24 -52z m3732 42 c0 -5 -5 -10 -11 -10
-5 0 -7 5 -4 10 3 6 8 10 11 10 2 0 4 -4 4 -10z m393 -162 c55 -114 83 -185
74 -194 -2 -3 -14 19 -27 48 -43 101 -74 163 -94 193 -22 32 -31 65 -17 65 5
0 34 -51 64 -112z m-1123 87 c19 -22 8 -25 -12 -3 -10 10 -14 18 -9 18 5 0 14
-7 21 -15z m120 -73 c0 -10 -56 42 -79 73 -8 11 6 0 32 -25 26 -24 47 -46 47
-48z m-3214 -59 c-8 -15 -15 -22 -16 -15 0 17 20 55 27 49 2 -3 -2 -18 -11
-34z m3294 -28 c7 -9 8 -15 2 -15 -5 0 -12 7 -16 15 -3 8 -4 15 -2 15 2 0 9
-7 16 -15z m1251 -41 c12 -25 18 -48 16 -51 -6 -6 -47 70 -47 87 0 22 12 8 31
-36z m-4571 16 c0 -5 -5 -10 -11 -10 -5 0 -7 5 -4 10 3 6 8 10 11 10 2 0 4 -4
4 -10z m4340 -125 c7 -8 8 -15 2 -15 -5 0 -15 7 -22 15 -7 8 -8 15 -2 15 5 0
15 -7 22 -15z m14 -41 c3 -8 2 -12 -4 -9 -6 3 -10 10 -10 16 0 14 7 11 14 -7z
m-1589 -819 c39 -16 55 -46 55 -104 0 -54 -27 -77 -72 -62 -41 14 -66 47 -74
99 -5 32 -2 44 15 61 25 25 31 25 76 6z"/>
<path d="M2795 211 c-8 -14 6 -91 17 -91 5 0 16 -7 24 -15 31 -30 44 -18 44
40 0 43 -4 56 -19 65 -24 13 -58 13 -66 1z"/>
<path d="M2597 6363 c4 -21 7 -65 6 -98 -2 -37 0 -55 6 -47 5 8 17 12 27 10
15 -2 19 -12 19 -46 0 -27 -4 -42 -12 -42 -7 0 -18 -8 -24 -18 -8 -13 -20 -17
-40 -14 -29 4 -37 16 -19 27 6 3 10 13 10 21 0 8 -4 12 -10 9 -5 -3 -10 -1
-10 4 0 6 5 11 10 11 19 0 10 18 -12 23 -28 8 -86 -19 -93 -44 -4 -10 -10 -19
-16 -19 -5 0 -15 -16 -23 -35 -24 -57 -68 -105 -96 -105 -14 0 -36 -9 -50 -20
-14 -11 -33 -20 -42 -20 -10 0 -18 -6 -18 -12 0 -17 -66 -62 -79 -53 -27 16
-144 -61 -218 -145 -12 -14 -27 -29 -33 -35 -69 -64 -206 -313 -236 -430 -23
-92 -32 -145 -23 -150 4 -3 -2 -33 -13 -68 -12 -37 -22 -94 -23 -142 -1 -44
-8 -102 -14 -130 -15 -61 -23 -339 -11 -380 5 -16 14 -61 20 -100 31 -184 55
-296 70 -324 4 -9 10 -30 12 -46 4 -28 12 -49 59 -150 10 -22 26 -71 36 -110
9 -38 25 -78 35 -89 9 -10 20 -32 23 -47 4 -16 11 -29 15 -29 5 0 7 -7 4 -15
-4 -8 -1 -15 5 -15 7 0 17 -14 23 -31 7 -19 15 -28 24 -25 8 3 20 -3 26 -14 7
-11 18 -20 24 -20 5 0 19 -8 30 -19 11 -10 31 -18 45 -17 13 1 30 -3 38 -8 12
-9 13 -4 8 33 l-6 45 29 -30 c15 -16 38 -37 50 -48 16 -13 19 -20 11 -26 -8
-4 -10 -22 -7 -48 4 -32 1 -42 -12 -45 -10 -3 -6 -5 10 -6 34 -1 45 -18 16
-24 l-23 -4 22 -8 c20 -6 22 -12 17 -61 -2 -33 0 -54 6 -54 5 0 10 9 10 20 0
11 7 23 15 26 17 7 51 72 42 81 -4 3 0 20 7 37 7 17 13 48 12 69 -1 25 3 37
13 37 11 0 11 3 0 16 -10 13 -10 17 1 24 18 11 26 178 12 275 -5 39 -7 73 -3
76 3 4 34 9 68 11 61 4 61 4 58 -21 -2 -16 6 -35 18 -49 l21 -22 -23 -40 -22
-39 21 -11 c17 -9 19 -14 9 -26 -9 -11 -9 -14 1 -14 17 0 3 -50 -18 -67 -15
-11 -15 -12 -2 -13 9 0 21 4 28 10 8 7 9 7 3 -1 -5 -6 -5 -24 0 -42 5 -17 5
-33 1 -36 -4 -4 -8 -19 -9 -35 -2 -22 1 -26 9 -18 17 17 28 15 22 -3 -7 -17
14 -48 26 -40 5 3 13 -10 19 -28 7 -19 38 -57 76 -92 48 -43 62 -61 53 -68
-10 -6 -9 -8 3 -4 9 3 31 -11 54 -34 21 -21 48 -39 59 -39 17 0 18 2 6 10 -9
6 -10 10 -3 10 18 0 26 -19 13 -35 -9 -10 -3 -19 25 -40 19 -15 35 -32 35 -37
0 -6 -7 -5 -15 2 -8 7 -15 8 -15 4 0 -5 9 -15 21 -22 12 -8 18 -9 14 -3 -10
17 3 13 51 -15 24 -14 44 -21 44 -16 0 6 -6 13 -12 15 -8 3 -6 6 5 6 10 1 20
-5 23 -13 3 -8 13 -12 25 -9 10 3 19 0 19 -6 0 -5 -7 -8 -15 -5 -19 8 -15 -34
5 -46 7 -4 9 -13 5 -21 -5 -8 -5 -11 -1 -7 5 4 18 -5 30 -19 l22 -25 -1 26 c0
14 -4 26 -10 27 -11 0 -28 39 -21 46 2 2 18 -5 36 -16 18 -10 39 -17 46 -14 8
3 17 -2 20 -11 4 -11 13 -15 28 -11 17 5 18 4 6 -4 -14 -10 -7 -16 14 -12 4 1
24 -7 43 -19 19 -11 39 -20 44 -20 6 0 17 -7 26 -15 8 -9 23 -13 34 -10 10 4
27 1 36 -4 14 -9 6 -10 -36 -7 -47 4 -52 2 -39 -11 11 -10 38 -14 93 -14 43 0
86 -4 94 -8 14 -7 67 -4 201 14 58 8 124 40 165 80 18 18 57 50 86 70 30 21
56 39 58 41 2 2 6 21 8 41 2 21 5 47 6 57 4 34 -23 30 -30 -5 -5 -28 -7 -30
-14 -14 -4 11 -8 35 -8 53 -1 17 -5 32 -11 32 -5 0 -10 -5 -10 -11 0 -5 -5 -7
-11 -3 -8 4 -9 -1 -4 -16 5 -15 4 -20 -4 -16 -6 4 -11 21 -11 37 0 18 -4 28
-10 24 -5 -3 -10 -17 -10 -31 0 -13 -5 -24 -11 -24 -6 0 -9 10 -7 23 1 12 -2
22 -7 22 -6 0 -9 -4 -7 -9 2 -5 0 -27 -3 -48 -8 -43 -25 -42 -25 3 0 16 -5 29
-12 29 -9 0 -9 3 0 12 16 16 16 41 0 36 -7 -3 -17 -20 -22 -39 l-10 -34 -4 33
c-2 17 -7 32 -11 32 -5 0 -12 10 -16 23 -3 12 -8 17 -11 10 -3 -7 -1 -20 4
-29 7 -12 6 -26 -1 -41 -11 -25 -33 -33 -23 -8 3 8 9 22 12 31 5 11 2 15 -12
12 -11 -2 -18 2 -17 10 2 6 -5 12 -16 12 -25 0 -43 23 -35 45 6 15 4 16 -14 6
-12 -6 -21 -15 -21 -19 3 -18 -2 -32 -12 -32 -6 0 -8 8 -5 18 17 57 18 72 4
67 -15 -6 -41 50 -32 69 3 6 -3 0 -15 -14 -20 -24 -20 -24 -14 -3 7 30 -4 29
-33 -3 -23 -24 -55 -25 -36 -1 11 14 25 67 18 67 -3 0 -13 -12 -21 -27 -9 -16
-13 -19 -10 -8 8 24 8 24 6 53 -1 30 -27 28 -35 -3 -4 -14 -12 -25 -19 -24 -7
1 -20 -1 -29 -5 -25 -11 -58 11 -58 39 0 14 -4 25 -10 25 -6 0 -6 9 0 24 11
30 2 66 -16 66 -20 0 -29 -27 -14 -45 12 -14 3 -20 -16 -12 -3 1 -12 -11 -19
-28 -14 -31 -16 -29 -20 15 -4 36 4 44 26 24 19 -17 27 -6 9 12 -7 7 -6 21 4
45 13 33 9 69 -8 72 -5 1 -13 -9 -19 -23 -8 -20 -11 -22 -14 -7 -3 9 -13 17
-23 17 -12 0 -17 -5 -14 -13 3 -8 -4 -25 -15 -38 l-20 -24 6 45 c3 25 9 47 12
50 8 7 7 47 -2 56 -4 4 -7 -1 -7 -12 -1 -20 -22 -54 -34 -54 -3 0 1 11 10 25
9 14 12 25 6 25 -6 0 -13 17 -15 38 -3 31 -4 29 -7 -18 -5 -84 -5 -84 -13 -98
-10 -15 5 -16 21 0 9 9 12 7 12 -10 0 -13 -11 -34 -25 -48 -14 -14 -25 -28
-25 -32 0 -4 -12 -12 -26 -19 -25 -11 -25 -11 -12 5 8 9 19 24 23 32 6 12 5
13 -6 3 -22 -22 -31 -14 -10 8 16 17 19 32 16 81 -4 59 -4 60 16 43 10 -10 19
-14 19 -10 0 21 -25 75 -36 79 -9 3 -11 -1 -7 -12 6 -15 5 -15 -10 -3 -9 7
-17 20 -17 27 0 7 -6 11 -13 8 -7 -2 -22 11 -34 33 -18 30 -23 34 -28 21 -4
-10 0 -32 9 -49 18 -36 21 -74 6 -64 -6 3 -7 -1 -3 -10 3 -9 9 -13 12 -8 12
18 41 23 41 8 0 -8 -4 -15 -10 -15 -5 0 -7 -12 -4 -28 4 -20 -1 -33 -19 -50
l-25 -24 -7 31 c-8 36 -12 37 -37 14 -10 -9 -18 -11 -18 -5 0 6 12 20 28 32
25 20 25 21 5 17 -13 -3 -26 0 -30 5 -3 7 -1 8 5 4 7 -4 12 -3 12 3 0 5 3 18
7 28 6 17 5 17 -15 -1 -23 -20 -31 -9 -9 13 10 11 9 12 -2 6 -11 -7 -13 -2 -8
23 4 17 2 34 -3 37 -6 3 -10 -1 -10 -9 0 -9 -7 -16 -15 -16 -12 0 -13 4 -5 19
5 11 10 24 10 30 0 18 -18 12 -23 -6 -4 -14 -5 -12 -6 5 -1 27 33 31 47 6 6
-11 11 -13 16 -5 4 6 2 11 -4 11 -6 0 -19 19 -30 43 -12 28 -19 35 -19 21 -1
-11 5 -26 12 -33 10 -11 9 -13 -4 -8 -9 3 -22 1 -28 -4 -8 -6 -8 -5 -1 3 12
14 14 41 2 34 -4 -2 -8 4 -8 15 0 12 7 19 19 19 18 0 18 1 3 25 -9 13 -16 33
-16 45 0 11 -4 20 -9 20 -5 0 -8 -18 -7 -40 3 -33 1 -38 -10 -29 -8 6 -14 28
-14 48 0 20 -4 41 -8 47 -10 15 -42 25 -42 14 0 -6 6 -10 14 -10 15 0 32 -37
22 -47 -3 -3 -12 2 -21 11 -15 15 -29 75 -28 124 1 18 -2 20 -13 11 -8 -6 -14
-18 -14 -25 0 -8 -5 -14 -11 -14 -5 0 -8 4 -5 9 10 15 17 93 11 112 -4 11 -10
17 -15 14 -5 -3 -3 10 5 29 20 48 19 103 -4 140 -16 27 -19 48 -16 156 2 124
13 178 50 251 9 17 11 29 5 29 -5 0 -10 -5 -10 -12 0 -6 -3 -8 -7 -5 -7 8 30
44 78 75 19 12 30 22 25 22 -5 0 1 9 14 20 13 12 30 18 38 15 7 -3 25 4 39 15
31 24 56 25 114 4 56 -19 205 -19 279 1 30 8 73 15 95 15 58 0 184 42 253 84
56 34 148 123 138 133 -3 3 -27 -18 -54 -45 -49 -50 -178 -130 -189 -118 -4 3
-4 7 -2 9 2 2 31 21 64 42 56 37 135 108 135 121 0 3 -15 -6 -33 -20 -43 -33
-58 -34 -23 -1 14 13 26 29 26 35 0 7 9 9 23 5 18 -6 20 -5 10 6 -7 7 -13 20
-13 29 1 12 4 11 15 -4 8 -11 15 -18 16 -15 0 2 2 14 5 26 2 12 -2 28 -10 36
-12 11 -11 17 1 38 l14 24 -5 -27 c-4 -15 -2 -29 2 -32 4 -3 14 22 21 54 8 33
17 57 22 55 10 -7 28 26 22 42 -6 17 18 28 28 12 7 -11 9 -10 9 4 0 9 7 17 15
17 8 0 20 9 27 20 7 11 18 20 25 20 7 0 16 7 21 16 6 12 19 15 39 12 25 -3 29
-1 26 13 -3 9 0 20 6 23 17 11 13 23 -9 29 -13 3 -18 11 -14 20 4 11 -1 13
-22 9 -20 -4 -25 -2 -19 8 6 10 1 12 -23 7 -17 -4 -34 -2 -37 3 -3 5 0 7 8 5
7 -3 22 3 32 15 11 12 13 20 6 20 -6 0 -14 -7 -18 -16 -3 -8 -11 -13 -18 -10
-7 2 -22 -2 -34 -10 -26 -19 -30 2 -3 22 16 13 16 14 -3 7 -18 -6 -19 -5 -5
12 14 17 14 17 -7 5 -12 -8 -21 -18 -20 -23 1 -5 -4 -12 -12 -15 -8 -2 -11 0
-7 6 3 6 0 12 -6 15 -8 2 -2 10 14 17 15 7 25 16 23 21 -3 4 0 11 6 15 8 4 9
3 5 -4 -10 -16 0 -15 29 4 28 18 95 9 103 -15 3 -9 0 -11 -9 -6 -11 6 -11 5
-3 -4 14 -16 57 -5 80 20 9 10 26 19 37 19 35 0 -51 69 -95 76 -21 4 -38 12
-38 18 0 7 -22 19 -50 26 -27 7 -50 18 -50 22 0 5 10 7 23 3 21 -6 21 -6 3 9
-19 15 -47 20 -93 16 -13 -1 -23 3 -23 9 0 6 7 11 16 11 8 0 13 4 10 9 -7 10
-61 19 -226 37 -99 10 -99 19 1 19 108 -1 131 9 59 24 -28 6 -61 18 -73 26
-12 8 -41 15 -65 15 -24 0 -41 4 -38 9 3 5 0 9 -7 8 -6 0 -34 1 -61 1 -42 2
-47 4 -36 17 7 9 11 17 9 18 -13 10 -189 -11 -205 -23 -13 -12 -18 -12 -21 -2
-3 6 -14 13 -26 13 -17 1 -18 2 -4 6 9 2 15 8 13 11 -5 8 20 10 109 12 57 0
59 1 40 17 -18 14 -18 15 -2 9 10 -3 42 -7 70 -7 29 -1 43 -4 33 -6 -14 -4 -4
-11 34 -24 61 -22 74 -23 65 -9 -3 6 -17 10 -30 10 -13 0 -27 5 -30 10 -8 13
1 12 48 -1 20 -5 37 -13 37 -18 0 -7 18 -12 168 -47 43 -10 68 -20 61 -25 -7
-4 -3 -7 12 -7 34 1 187 -56 207 -77 16 -16 16 -17 -5 -6 -34 17 -42 12 -8 -6
20 -11 30 -12 33 -4 2 6 8 11 14 11 6 0 8 -7 4 -15 -3 -8 -1 -15 4 -15 5 0 30
-14 55 -31 25 -17 49 -28 52 -25 4 3 2 6 -3 6 -5 0 -25 14 -44 31 -19 17 -28
28 -20 24 8 -4 -3 9 -24 29 -21 20 -58 45 -81 55 -43 19 -72 46 -38 35 14 -5
15 -4 4 4 -8 6 -20 8 -28 5 -7 -3 -19 0 -26 6 -7 6 -38 16 -68 22 -30 6 -61
16 -69 21 -12 8 -12 9 3 4 33 -10 17 14 -24 35 -25 12 -50 18 -65 15 -30 -8
-165 14 -158 25 8 13 -10 11 -23 -2 -13 -13 -73 -3 -73 12 0 12 7 11 32 -2 15
-8 23 -8 32 1 6 6 7 10 1 8 -17 -5 -77 24 -65 32 6 4 -8 7 -32 7 -24 0 -72 3
-108 8 -78 9 -109 8 -135 -4 -31 -14 -119 -40 -123 -36 -2 2 10 11 27 20 17 8
31 21 31 28 -1 16 -30 54 -30 38 0 -8 -7 -10 -20 -6 -14 5 -20 2 -20 -9 0 -20
-14 -20 -34 0 -21 20 -20 25 2 17 14 -5 15 -4 4 8 -14 15 -62 20 -62 7 0 -4 5
-8 11 -8 6 0 9 -8 7 -17 -2 -10 -8 -18 -13 -18 -6 0 -16 -4 -24 -9 -10 -6 -12
-5 -7 2 4 7 2 12 -4 12 -6 0 -8 5 -5 10 4 6 16 8 27 4 18 -5 19 -4 7 8 -7 8
-21 13 -31 10 -12 -3 -18 1 -18 12 0 9 -5 16 -11 16 -5 0 -7 5 -3 12 5 7 2 9
-8 5 -16 -5 -16 13 -1 53 4 8 8 36 10 63 l3 47 -90 0 -91 0 8 -37z m113 -113
c0 -5 -5 -10 -11 -10 -5 0 -7 5 -4 10 3 6 8 10 11 10 2 0 4 -4 4 -10z m-30
-20 c0 -5 -2 -10 -4 -10 -3 0 -8 5 -11 10 -3 6 -1 10 4 10 6 0 11 -4 11 -10z
m85 -31 c4 -6 0 -9 -11 -7 -12 2 -18 -2 -16 -10 1 -7 -5 -23 -14 -35 l-16 -22
4 27 c4 19 1 25 -9 21 -22 -9 -14 13 10 25 29 14 44 14 52 1z m210 -39 c3 -5
-1 -10 -10 -10 -9 0 -13 5 -10 10 3 6 8 10 10 10 2 0 7 -4 10 -10z m-441 -15
c-4 -8 -8 -15 -10 -15 -2 0 -4 7 -4 15 0 8 4 15 10 15 5 0 7 -7 4 -15z m-54
-5 c0 -5 -5 -10 -11 -10 -5 0 -7 5 -4 10 3 6 8 10 11 10 2 0 4 -4 4 -10z m310
0 c0 -5 -4 -10 -10 -10 -5 0 -10 5 -10 10 0 6 5 10 10 10 6 0 10 -4 10 -10z
m525 -50 c-3 -5 -14 -10 -23 -10 -15 0 -15 2 -2 10 20 13 33 13 25 0z m-245
-41 c-25 -5 -62 -16 -83 -25 -31 -14 -40 -15 -50 -4 -9 10 -9 11 1 6 7 -4 18
-3 25 2 22 17 71 30 112 30 l40 0 -45 -9z m540 -19 c13 -8 13 -10 -2 -10 -9 0
-20 5 -23 10 -8 13 5 13 25 0z m-570 -60 c-8 -5 -19 -10 -25 -10 -5 0 -3 5 5
10 8 5 20 10 25 10 6 0 3 -5 -5 -10z m-771 -33 c-2 -1 -13 -9 -24 -17 -19 -14
-19 -14 -6 3 7 9 18 17 24 17 6 0 8 -1 6 -3z m1626 -256 c5 -1 5 -4 0 -10 -6
-6 -29 -4 -60 5 l-50 14 50 -5 c28 -2 54 -4 60 -4z m-150 -61 c-23 -26 -11
-25 28 1 l32 21 -34 -32 c-31 -30 -35 -31 -44 -15 -7 14 -5 21 9 32 26 19 30
16 9 -7z m225 10 c18 -12 2 -12 -25 0 -13 6 -15 9 -5 9 8 0 22 -4 30 -9z
m-768 -737 c9 2 23 9 32 16 9 8 19 11 22 9 3 -3 -8 -16 -23 -28 l-28 -23 35 6
c31 5 32 5 10 -5 -14 -5 -34 -15 -45 -21 -25 -13 -174 -19 -212 -7 -27 8 -26
8 12 10 59 2 140 25 141 41 1 8 2 18 3 23 0 5 9 2 19 -7 9 -9 25 -15 34 -14z
m108 -7 c0 -2 -7 -6 -15 -10 -8 -3 -15 -1 -15 4 0 6 7 10 15 10 8 0 15 -2 15
-4z m175 -6 c-11 -5 -27 -9 -35 -9 -13 -1 -13 0 0 9 8 5 24 9 35 9 l20 0 -20
-9z m-1405 -635 c0 -8 -4 -15 -10 -15 -5 0 -7 7 -4 15 4 8 8 15 10 15 2 0 4
-7 4 -15z m589 -64 l-1 -26 -8 25 c-7 24 -7 23 -12 -10 -4 -28 -5 -26 -4 12 1
36 4 44 14 36 6 -6 12 -22 11 -37z m-266 -11 c-3 -12 -8 -19 -11 -16 -5 6 5
36 12 36 2 0 2 -9 -1 -20z m17 -51 c0 -24 -23 -21 -28 4 -2 10 3 17 12 17 10
0 16 -9 16 -21z m-41 -47 c19 -38 31 -51 44 -48 19 5 20 1 19 -80 0 -41 4 -51
17 -50 12 1 16 -8 16 -38 0 -31 -6 -43 -28 -60 -25 -18 -40 -21 -115 -18 -105
3 -148 21 -226 95 -53 51 -87 104 -100 160 -5 20 -3 27 9 27 9 0 15 9 15 24 0
20 5 24 23 22 13 -1 37 -14 53 -29 31 -29 84 -52 84 -36 0 5 -4 9 -8 9 -5 0
-25 16 -45 35 -47 45 -23 46 28 0 39 -34 60 -40 35 -10 -7 9 -10 18 -6 22 3 3
6 1 6 -5 0 -6 9 -14 20 -17 11 -3 20 -14 20 -24 0 -30 37 -54 83 -55 35 -1 42
2 45 19 1 11 -5 29 -15 40 -21 23 -30 79 -12 73 6 -2 23 -27 38 -56z m-103
-39 c-7 -7 -26 7 -26 19 0 6 6 6 15 -2 9 -7 13 -15 11 -17z m191 -85 c-3 -8
-6 -5 -6 6 -1 11 2 17 5 13 3 -3 4 -12 1 -19z m100 -110 c-3 -8 -6 -5 -6 6 -1
11 2 17 5 13 3 -3 4 -12 1 -19z m-83 -77 c-3 -9 -9 -24 -12 -34 -3 -12 -7 -15
-12 -7 -11 18 0 57 16 57 10 0 13 -6 8 -16z m-44 -61 c0 -5 -4 -10 -10 -10 -5
0 -10 5 -10 10 0 6 5 10 10 10 6 0 10 -4 10 -10z m47 -12 c-3 -8 -6 -5 -6 6
-1 11 2 17 5 13 3 -3 4 -12 1 -19z m483 -63 c0 -8 -2 -15 -4 -15 -2 0 -6 7
-10 15 -3 8 -1 15 4 15 6 0 10 -7 10 -15z m-106 -110 c-4 -8 -11 -15 -16 -15
-6 0 -5 6 2 15 7 8 14 15 16 15 2 0 1 -7 -2 -15z m-824 -65 c0 -5 -4 -10 -10
-10 -5 0 -10 5 -10 10 0 6 5 10 10 10 6 0 10 -4 10 -10z m871 -13 c-10 -9 -11
-8 -5 6 3 10 9 15 12 12 3 -3 0 -11 -7 -18z m363 -43 c3 -8 2 -12 -4 -9 -6 3
-10 10 -10 16 0 14 7 11 14 -7z m-1224 -4 c0 -5 -2 -10 -4 -10 -3 0 -8 5 -11
10 -3 6 -1 10 4 10 6 0 11 -4 11 -10z m811 -23 c-10 -9 -11 -8 -5 6 3 10 9 15
12 12 3 -3 0 -11 -7 -18z m270 0 c-10 -9 -11 -8 -5 6 3 10 9 15 12 12 3 -3 0
-11 -7 -18z m44 -37 c3 -5 1 -10 -4 -10 -6 0 -11 5 -11 10 0 6 2 10 4 10 3 0
8 -4 11 -10z m72 -12 c-3 -8 -6 -5 -6 6 -1 11 2 17 5 13 3 -3 4 -12 1 -19z
m-707 -12 c0 -3 -4 -8 -10 -11 -5 -3 -10 -1 -10 4 0 6 5 11 10 11 6 0 10 -2
10 -4z m700 -15 c0 -5 -7 -12 -16 -15 -14 -5 -15 -4 -4 9 14 17 20 19 20 6z
m70 -33 c16 -10 24 -10 40 0 11 7 20 8 20 2 0 -5 7 -7 15 -4 8 4 15 1 15 -6 0
-6 -4 -8 -10 -5 -5 3 -10 0 -10 -7 0 -10 -2 -10 -9 1 -7 11 -11 9 -20 -8 -15
-26 -27 -27 -34 -1 -3 11 -11 19 -17 18 -7 -2 -15 3 -17 10 -6 15 2 15 27 0z
m140 -88 c0 -5 -4 -10 -10 -10 -5 0 -10 5 -10 10 0 6 5 10 10 10 6 0 10 -4 10
-10z m290 -190 c0 -5 -5 -10 -11 -10 -5 0 -7 5 -4 10 3 6 8 10 11 10 2 0 4 -4
4 -10z m-49 -37 c-9 -16 -10 -14 -11 12 0 21 3 26 11 18 8 -8 8 -16 0 -30z
m166 0 c-3 -10 -5 -4 -5 12 0 17 2 24 5 18 2 -7 2 -21 0 -30z m53 -13 c0 -5
-5 -10 -11 -10 -5 0 -7 5 -4 10 3 6 8 10 11 10 2 0 4 -4 4 -10z"/>
<path d="M3135 4859 c-22 -10 -33 -19 -24 -19 20 0 69 23 69 33 0 8 4 10 -45
-14z"/>
<path d="M2850 6260 c-9 -6 -10 -10 -3 -10 6 0 15 5 18 10 8 12 4 12 -15 0z"/>
<path d="M2830 6230 c-27 -9 -26 -9 7 -16 12 -2 23 2 27 11 6 16 3 17 -34 5z"/>
<path d="M3102 6205 c-15 -19 -30 -25 -60 -27 -30 -1 -39 -5 -35 -15 11 -28
101 6 123 47 15 29 -4 25 -28 -5z"/>
<path d="M3411 6178 c-11 -30 -5 -35 17 -14 11 9 26 14 36 10 9 -3 16 -2 16 4
0 11 -23 22 -46 22 -8 0 -18 -10 -23 -22z"/>
<path d="M2620 6175 c-8 -9 -8 -15 -2 -15 12 0 26 19 19 26 -2 2 -10 -2 -17
-11z"/>
<path d="M4720 6174 c0 -8 8 -14 18 -14 10 0 26 -10 37 -22 12 -15 20 -18 23
-10 6 19 -6 44 -18 37 -5 -3 -10 0 -10 8 0 9 -10 15 -25 15 -15 0 -25 -6 -25
-14z"/>
<path d="M3455 6150 c3 -5 11 -10 16 -10 6 0 7 5 4 10 -3 6 -11 10 -16 10 -6
0 -7 -4 -4 -10z"/>
<path d="M3610 6090 c0 -5 10 -10 23 -10 18 0 19 2 7 10 -19 13 -30 13 -30 0z"/>
<path d="M2337 6073 c-8 -13 2 -43 14 -43 10 0 10 8 0 34 -5 12 -10 16 -14 9z"/>
<path d="M4653 5998 c1 -55 6 -83 15 -86 7 -2 10 2 6 12 -3 9 -2 16 4 16 14 0
25 -34 13 -38 -14 -5 -14 -42 -1 -42 6 0 10 -5 10 -11 0 -6 -9 -8 -20 -4 -12
4 -20 2 -20 -5 0 -6 -4 -8 -10 -5 -6 4 -10 -7 -10 -24 0 -21 5 -31 15 -31 37
0 42 -73 6 -83 -15 -4 -18 -15 -18 -78 0 -41 3 -79 8 -85 5 -6 5 -24 1 -40 -5
-16 -6 -58 -4 -94 2 -36 5 -170 7 -297 1 -161 6 -237 14 -247 7 -9 8 -17 2
-20 -5 -4 -2 -27 10 -58 10 -29 19 -54 19 -55 0 -2 5 -3 11 -3 7 0 9 12 6 33
-2 17 2 51 10 75 7 23 11 47 7 53 -3 6 2 19 12 30 14 16 18 43 21 167 2 81 4
155 4 165 0 10 7 21 15 24 13 5 13 8 0 28 -12 19 -12 24 -1 36 19 19 4 93 -24
123 -22 24 -28 56 -10 56 16 0 5 72 -14 101 -12 17 -14 26 -5 36 15 19 25 16
32 -9 4 -17 8 -20 17 -11 11 11 4 53 -10 53 -10 0 -3 47 11 76 5 11 8 36 6 54
-2 27 -8 35 -28 40 -31 7 -33 35 -3 35 13 0 23 5 23 10 0 6 -9 10 -20 10 -27
0 -29 18 -3 30 12 5 24 21 27 36 4 19 11 27 23 25 10 -2 12 -1 6 1 -7 3 -13
11 -13 19 0 19 -34 18 -50 -1 -17 -21 -27 -19 -33 7 -5 17 -9 19 -20 10 -17
-15 -27 -6 -27 25 0 13 -4 23 -9 23 -5 0 -9 -37 -8 -82z m37 -8 c0 -5 -2 -10
-4 -10 -3 0 -8 5 -11 10 -3 6 -1 10 4 10 6 0 11 -4 11 -10z m65 -9 c3 -5 1
-12 -5 -16 -5 -3 -10 1 -10 9 0 18 6 21 15 7z m-38 -33 c-3 -7 -5 -2 -5 12 0
14 2 19 5 13 2 -7 2 -19 0 -25z m3 -70 c0 -16 -3 -19 -11 -11 -6 6 -8 16 -5
22 11 17 16 13 16 -11z m50 -60 c0 -41 -17 -53 -24 -17 -7 36 -21 30 -29 -11
-3 -18 -5 -15 -6 13 -1 35 1 37 29 37 24 0 30 -4 30 -22z"/>
<path d="M4642 5880 c0 -14 2 -19 5 -12 2 6 2 18 0 25 -3 6 -5 1 -5 -13z"/>
<path d="M4086 5611 c-3 -5 1 -12 10 -15 12 -5 13 -10 6 -19 -8 -9 -3 -12 24
-11 31 2 39 -5 35 -28 0 -5 4 -8 9 -8 21 0 9 29 -25 59 -37 32 -50 37 -59 22z"/>
<path d="M4042 5597 c-8 -10 -6 -13 7 -13 11 0 17 6 14 13 -3 7 -6 13 -8 13
-1 0 -7 -6 -13 -13z"/>
<path d="M4200 5553 c0 -4 10 -17 22 -30 17 -19 19 -23 5 -17 -19 7 -25 -20
-7 -31 15 -9 12 -25 -3 -19 -8 3 -19 -2 -26 -10 -10 -12 -9 -14 8 -9 14 3 21
1 21 -8 -1 -20 -25 -49 -41 -49 -10 1 -9 4 4 11 31 18 18 27 -25 17 -29 -6
-44 -6 -46 1 -2 6 -8 8 -14 5 -6 -4 -14 -1 -18 7 -7 10 -11 10 -25 -1 -14 -12
-15 -15 -2 -24 7 -6 43 -53 79 -103 36 -51 68 -90 71 -86 4 3 13 0 22 -7 9 -7
15 -8 15 -2 0 6 -14 22 -31 36 l-31 26 27 0 c23 0 25 3 16 14 -14 17 -8 21 41
30 49 9 52 16 22 51 -28 33 -30 48 -9 65 22 18 18 39 -10 52 -13 6 -22 15 -19
20 8 13 -15 55 -32 62 -8 3 -14 2 -14 -1z m-90 -167 c0 -3 -4 -8 -10 -11 -5
-3 -10 -1 -10 4 0 6 5 11 10 11 6 0 10 -2 10 -4z m120 -25 c0 -5 9 -11 21 -14
35 -9 17 -32 -22 -29 -41 4 -64 22 -28 22 17 0 20 3 10 9 -7 5 -23 7 -35 5
-18 -4 -18 -3 -3 4 26 11 57 12 57 3z"/>
<path d="M4105 5540 c-3 -5 1 -10 9 -10 9 0 16 5 16 10 0 6 -4 10 -9 10 -6 0
-13 -4 -16 -10z"/>
<path d="M4150 5510 c0 -12 8 -12 35 0 18 8 17 9 -7 9 -16 1 -28 -3 -28 -9z"/>
<path d="M4000 5443 c0 -5 4 -14 9 -22 8 -12 12 -12 25 -2 9 8 16 18 16 23 0
6 -8 4 -17 -3 -11 -10 -14 -10 -9 -1 4 7 1 12 -8 12 -9 0 -16 -3 -16 -7z"/>
<path d="M4275 5400 c3 -5 8 -10 11 -10 2 0 4 5 4 10 0 6 -5 10 -11 10 -5 0
-7 -4 -4 -10z"/>
<path d="M4230 5140 c6 -11 13 -20 16 -20 2 0 0 9 -6 20 -6 11 -13 20 -16 20
-2 0 0 -9 6 -20z"/>
<path d="M4158 4721 c-26 -17 -78 -67 -78 -77 0 -2 9 -4 21 -4 11 0 18 4 15 8
-2 4 4 8 14 8 10 0 16 -4 14 -8 -7 -12 14 -10 75 7 30 8 57 14 60 13 27 -3 61
4 57 11 -8 13 -86 47 -121 53 -19 4 -40 -1 -57 -11z"/>
<path d="M3364 4705 c-10 -8 -14 -14 -9 -14 6 0 19 6 29 14 11 8 15 15 10 15
-6 0 -19 -7 -30 -15z"/>
<path d="M3555 4709 c-28 -3 -61 -11 -73 -18 -12 -6 -31 -16 -42 -21 -12 -6
-42 -8 -69 -4 -31 4 -51 2 -55 -5 -11 -18 -26 -13 -19 7 5 14 3 13 -10 -3 -24
-29 -21 -35 12 -24 20 7 36 7 48 0 13 -7 33 -6 63 1 32 8 58 8 104 -1 33 -7
96 -13 140 -14 56 -1 80 -5 83 -15 5 -11 7 -11 14 0 7 10 9 10 9 1 0 -7 9 -13
20 -13 11 0 20 5 20 10 0 6 -7 10 -15 10 -18 0 -20 17 -3 22 8 3 6 13 -9 31
-14 18 -23 23 -26 15 -3 -8 -6 -6 -6 5 -1 11 -9 17 -23 17 -13 1 -43 2 -68 4
-25 1 -68 -1 -95 -5z"/>
<path d="M3315 4700 c-3 -6 1 -7 9 -4 18 7 21 14 7 14 -6 0 -13 -4 -16 -10z"/>
<path d="M4721 4684 c0 -11 3 -14 6 -6 3 7 2 16 -1 19 -3 4 -6 -2 -5 -13z"/>
<path d="M3220 4640 c-14 -11 -19 -20 -12 -20 6 0 21 9 32 20 26 26 13 26 -20
0z"/>
<path d="M3095 4593 c-16 -3 -34 -9 -39 -14 -14 -13 10 -11 69 5 48 14 33 18
-30 9z"/>
<path d="M4007 4553 c-9 -8 -9 -58 -1 -66 4 -3 13 0 21 8 28 29 67 9 42 -21
-9 -12 -10 -17 0 -27 10 -9 11 -8 6 8 -6 17 -4 17 12 -3 14 -17 27 -23 49 -20
30 3 32 10 18 56 -4 14 -2 22 6 22 7 0 10 -6 7 -14 -9 -22 5 -28 19 -8 12 16
13 15 14 -5 0 -12 9 -27 20 -33 17 -9 20 -8 20 10 0 12 5 18 10 15 6 -3 10 5
10 19 0 59 -130 84 -202 39 -47 -29 -51 -29 -46 2 6 27 5 29 -5 18z"/>
<path d="M4670 4550 c0 -5 5 -10 10 -10 6 0 10 5 10 10 0 6 -4 10 -10 10 -5 0
-10 -4 -10 -10z"/>
<path d="M3421 4540 c-78 -9 -241 -56 -253 -74 -11 -17 2 -27 30 -22 15 2 49
5 75 5 30 1 46 5 42 11 -3 6 1 13 9 16 9 3 16 12 16 20 0 8 5 14 10 14 6 0 10
-6 9 -12 -5 -45 20 -68 75 -68 44 0 66 13 66 40 0 8 4 21 9 29 14 22 41 -4 41
-38 0 -20 -2 -23 -10 -11 -8 12 -10 11 -10 -6 0 -24 29 -37 51 -23 8 5 25 9
38 9 16 0 21 4 17 15 -3 9 0 15 9 15 15 0 75 48 75 60 0 16 -38 21 -58 9 -16
-10 -26 -9 -55 4 -37 18 -67 19 -186 7z m179 -80 c0 -10 -26 -20 -33 -13 -3 3
-3 11 0 18 5 14 33 9 33 -5z"/>
<path d="M3887 3915 c-21 -7 -43 -18 -50 -23 -16 -13 -55 -5 -80 16 -9 8 -20
12 -25 8 -4 -4 6 -19 22 -33 24 -20 36 -24 65 -19 20 3 51 6 69 6 17 0 42 4
53 11 11 6 32 8 46 4 20 -5 23 -8 13 -20 -10 -12 -9 -15 4 -15 9 0 16 -4 16
-9 0 -4 20 -2 45 7 25 8 45 19 45 24 0 5 -10 6 -21 3 -15 -5 -19 -4 -15 4 12
18 -16 12 -30 -6 -12 -16 -13 -16 -8 -1 4 11 -2 21 -18 29 -13 7 -26 12 -29
11 -4 0 -20 3 -36 7 -19 6 -43 4 -66 -4z"/>
<path d="M2860 3764 c0 -21 5 -46 10 -54 7 -10 8 1 4 35 -8 62 -14 70 -14 19z"/>
<path d="M3900 3772 c0 -7 -5 -10 -11 -6 -6 3 -16 0 -21 -7 -7 -11 -11 -11
-15 -1 -10 24 -21 11 -19 -22 2 -27 0 -33 -11 -29 -8 3 -19 0 -24 -8 -12 -19
-11 -42 1 -34 6 4 7 12 3 18 -4 7 12 -3 35 -21 30 -24 42 -29 42 -18 0 9 6 13
14 10 8 -3 17 -1 20 5 4 6 12 8 20 5 7 -3 18 5 24 18 8 18 11 19 11 6 1 -22
43 -47 49 -29 3 8 8 8 15 3 17 -14 77 -2 77 14 0 8 4 14 10 14 5 0 7 6 4 14
-10 27 -94 50 -94 26 0 -22 -94 9 -116 38 -9 11 -13 13 -14 4z"/>
<path d="M3006 3675 c4 -8 8 -15 10 -15 2 0 4 7 4 15 0 8 -4 15 -10 15 -5 0
-7 -7 -4 -15z"/>
<path d="M3745 3660 c-3 -5 1 -10 10 -10 9 0 13 5 10 10 -3 6 -8 10 -10 10 -2
0 -7 -4 -10 -10z"/>
<path d="M3680 3648 c0 -12 -8 -18 -24 -18 -14 0 -28 -5 -31 -11 -4 -6 -13 -8
-19 -6 -7 3 -19 -3 -26 -13 -8 -11 -17 -17 -22 -14 -4 3 -8 -1 -8 -8 0 -11 -2
-10 -9 0 -6 10 -10 8 -14 -8 -4 -15 -11 -21 -21 -17 -23 9 -39 -18 -30 -50 4
-16 6 -32 5 -36 -2 -12 41 2 60 19 20 18 59 18 86 -1 22 -15 53 -11 53 7 0 5
8 7 18 4 9 -3 31 -8 47 -11 25 -5 27 -4 13 5 -27 16 -22 28 15 35 17 4 37 11
43 16 16 13 127 21 143 10 25 -16 -6 -43 -45 -39 -18 2 -32 1 -32 -2 2 -24 -4
-32 -22 -27 -10 3 -24 0 -29 -7 -16 -19 95 -10 162 13 31 11 59 16 62 11 3 -6
16 -5 30 0 14 5 32 7 40 4 8 -4 22 -4 30 0 22 8 6 36 -21 36 -14 0 -24 6 -24
14 0 19 -27 24 -68 13 -23 -6 -38 -5 -48 4 -18 15 -63 15 -159 -1 -160 -25
-149 -25 -140 -4 4 10 7 27 7 37 0 9 3 17 9 17 5 0 9 10 9 23 0 18 -2 19 -10
7 -9 -13 -11 -13 -20 0 -8 13 -10 12 -10 -2z"/>
<path d="M3234 3574 c3 -9 6 -18 6 -20 0 -2 5 -4 10 -4 6 0 10 9 10 20 0 12
-7 20 -16 20 -11 0 -14 -5 -10 -16z"/>
<path d="M3210 3548 c0 -18 26 -43 33 -31 2 4 -4 17 -14 27 -16 16 -19 17 -19
4z"/>
<path d="M3800 3510 c0 -5 5 -10 10 -10 6 0 10 5 10 10 0 6 -4 10 -10 10 -5 0
-10 -4 -10 -10z"/>
<path d="M2956 3503 c-11 -11 -7 -20 9 -20 8 0 15 4 15 8 0 11 -16 20 -24 12z"/>
<path d="M3848 3503 c7 -3 16 -2 19 1 4 3 -2 6 -13 5 -11 0 -14 -3 -6 -6z"/>
<path d="M3055 3490 c-3 -5 -1 -10 4 -10 6 0 11 5 11 10 0 6 -2 10 -4 10 -3 0
-8 -4 -11 -10z"/>
<path d="M3067 3444 c-4 -4 -7 -14 -7 -23 0 -11 3 -12 11 -4 6 6 10 16 7 23
-2 6 -7 8 -11 4z"/>
<path d="M4176 3355 c-3 -8 -1 -15 4 -15 6 0 10 7 10 15 0 8 -2 15 -4 15 -2 0
-6 -7 -10 -15z"/>
<path d="M3867 3322 c-33 -2 -55 -7 -52 -13 10 -15 -5 -48 -27 -60 -19 -10
-20 -9 -13 7 14 36 18 59 8 49 -19 -18 -24 -62 -9 -74 10 -8 16 -9 21 -1 10
16 25 12 19 -5 -4 -9 0 -15 10 -15 12 0 14 7 11 33 l-5 32 11 -27 c10 -27 29
-38 29 -18 0 6 5 10 11 10 6 0 8 -7 5 -16 -3 -9 -2 -12 5 -9 6 4 8 13 5 20 -3
8 2 19 10 25 8 7 14 19 14 26 0 7 6 11 13 9 6 -3 17 3 23 12 12 20 12 20 -89
15z"/>
<path d="M4175 3319 c-11 -17 1 -21 15 -4 8 9 8 15 2 15 -6 0 -14 -5 -17 -11z"/>
<path d="M4095 3280 c-3 -5 -1 -10 4 -10 6 0 11 5 11 10 0 6 -2 10 -4 10 -3 0
-8 -4 -11 -10z"/>
<path d="M4040 3221 c0 -11 -6 -24 -12 -28 -18 -11 -18 -52 -1 -46 8 3 11 13
8 23 -3 11 0 20 10 24 17 6 20 32 5 41 -5 3 -10 -3 -10 -14z"/>
<path d="M4100 3170 c0 -5 5 -10 10 -10 6 0 10 5 10 10 0 6 -4 10 -10 10 -5 0
-10 -4 -10 -10z"/>
<path d="M4080 3155 c0 -5 5 -17 10 -25 5 -8 10 -10 10 -5 0 6 -5 17 -10 25
-5 8 -10 11 -10 5z"/>
<path d="M4035 3132 c-6 -4 -11 -12 -10 -19 0 -14 15 -30 16 -17 0 5 2 17 4
27 4 19 4 19 -10 9z"/>
<path d="M3975 3071 c-3 -5 -1 -12 5 -16 5 -3 10 1 10 9 0 18 -6 21 -15 7z"/>
<path d="M3944 3038 c0 -12 7 -23 15 -26 10 -3 12 0 8 12 -4 10 -7 22 -7 27 0
5 -4 9 -9 9 -4 0 -8 -10 -7 -22z"/>
<path d="M4016 3032 c-4 -8 -1 -23 8 -37 21 -32 20 -41 -1 -20 -13 14 -18 14
-23 3 -12 -23 -20 -78 -11 -78 14 0 57 62 65 92 5 21 3 26 -8 22 -9 -3 -16 2
-18 13 -3 13 -5 15 -12 5z"/>
<path d="M2660 3005 c0 -5 5 -17 10 -25 5 -8 10 -10 10 -5 0 6 -5 17 -10 25
-5 8 -10 11 -10 5z"/>
<path d="M2690 2994 c0 -2 20 -14 46 -25 29 -14 43 -27 40 -35 -3 -8 -1 -14 4
-14 21 0 9 37 -15 48 -14 6 -25 15 -25 19 0 5 -11 9 -25 9 -14 1 -25 0 -25 -2z"/>
<path d="M2927 2861 c-17 -6 -17 -8 3 -26 20 -18 21 -18 14 0 -5 12 -4 16 4
11 8 -5 10 -2 6 8 -3 9 -7 16 -8 15 0 0 -9 -4 -19 -8z"/>
<path d="M3184 2735 c10 -8 15 -19 10 -26 -5 -8 -3 -10 5 -5 7 5 22 0 34 -10
12 -10 6 -2 -12 19 -19 20 -40 37 -45 37 -6 0 -3 -7 8 -15z"/>
<path d="M3158 2693 c7 -3 16 -2 19 1 4 3 -2 6 -13 5 -11 0 -14 -3 -6 -6z"/>
<path d="M4187 1973 c-7 -11 10 -40 18 -31 4 4 3 14 -3 24 -5 9 -12 12 -15 7z"/>
<path d="M4191 1911 c-7 -5 -9 -11 -5 -14 5 -3 15 1 22 9 14 16 5 18 -17 5z"/>
<path d="M4265 1880 c-3 -5 -1 -10 4 -10 6 0 11 5 11 10 0 6 -2 10 -4 10 -3 0
-8 -4 -11 -10z"/>
<path d="M5195 1290 c-3 -5 -2 -17 3 -26 8 -14 10 -12 10 9 0 29 -3 33 -13 17z"/>
<path d="M5220 930 c-8 -5 -49 -24 -90 -41 -79 -33 -118 -59 -89 -59 9 0 52 9
95 19 44 11 100 22 127 26 52 7 61 24 25 49 -26 18 -46 20 -68 6z"/>
<path d="M5270 580 c-12 -8 -10 -10 10 -10 14 0 32 5 40 10 12 8 10 10 -10 10
-14 0 -32 -5 -40 -10z"/>
<path d="M5235 295 c-27 -8 -75 -20 -105 -28 -42 -11 -55 -19 -55 -33 0 -22 5
-22 114 -6 76 11 123 35 129 66 4 19 -14 20 -83 1z"/>
<path d="M5295 39 c-22 -4 -60 -15 -85 -23 l-45 -15 88 0 c86 -1 87 -1 87 24
0 14 -1 25 -2 24 -2 -1 -21 -5 -43 -10z"/>
</g>
</svg>
